<?xml version="1.0" encoding="UTF-8" standalone="no"?>
<svg width="557px" height="106px" viewBox="0 0 557 106" version="1.1" xmlns="http://www.w3.org/2000/svg" xmlns:xlink="http://www.w3.org/1999/xlink" xmlns:sketch="http://www.bohemiancoding.com/sketch/ns">
    <!-- Generator: Sketch 3.3.1 (12002) - http://www.bohemiancoding.com/sketch -->
    <title>Group</title>
    <desc>Created with Sketch.</desc>
    <defs></defs>
    <g id="Page-1" stroke="none" stroke-width="1" fill="none" fill-rule="evenodd" sketch:type="MSPage">
        <g id="Group" sketch:type="MSLayerGroup">
            <path d="M251.24,77.57 C255.75,79.33 262.46,80.21 267.85,80.21 C281.82,80.21 292.16,73.17 292.16,60.52 C292.16,37.53 260.81,42.59 260.81,25.54 C260.81,17.07 267.3,13.44 275.33,13.44 C279.73,13.44 285.89,14.54 289.96,16.08 L289.96,9.92 C285.78,8.27 279.62,7.17 274.23,7.17 C261.91,7.17 252.01,14.21 252.01,26.42 C252.01,49.3 283.25,43.58 283.25,61.29 C283.25,70.75 275.33,73.94 266.53,73.94 C262.13,73.94 256.3,73.17 251.24,71.52 L251.24,77.57 Z" id="Path" fill="#A07838" sketch:type="MSShapeGroup"></path>
            <path d="M313.94,80.21 C320.21,80.21 325.27,77.57 329.67,71.85 L329.89,71.85 C330.66,75.26 333.3,78.89 339.46,80.1 L341.99,72.62 C338.14,71.52 337.04,68.88 337.04,65.25 L337.04,43.03 C337.04,31.37 329.12,28.29 320.54,28.29 C315.04,28.29 308.22,30.05 303.27,33.02 L303.27,38.41 C307.78,36.32 313.28,34.67 318.67,34.67 C324.28,34.67 328.68,36.76 328.68,43.58 L328.68,49.74 C310.97,50.18 300.08,54.58 300.08,66.79 C300.08,76.25 306.79,80.21 313.94,80.21 L313.94,80.21 Z" id="Path" fill="#A07838" sketch:type="MSShapeGroup"></path>
            <path d="M316.58,73.94 C311.52,73.94 308.77,70.75 308.77,65.91 C308.77,58.98 314.71,55.13 328.68,54.8 L328.68,66.79 C325.93,71.3 321.53,73.94 316.58,73.94 L316.58,73.94 Z" id="Path" fill="#FFFFFF" sketch:type="MSShapeGroup"></path>
            <path d="M352.99,79 L361.46,79 L361.46,42.04 C365.09,38.19 370.37,35 375.43,35 C379.06,35 382.25,36.32 384.12,39.73 C385.22,41.6 385.66,44.02 385.66,47.87 L385.66,79 L394.13,79 L394.13,46.66 C394.13,41.49 393.25,37.86 391.38,34.89 C388.96,30.93 384.56,28.29 378.62,28.29 C371.36,28.29 365.97,32.14 361.68,36.98 L361.46,36.98 L361.46,29.72 L352.99,29.72 L352.99,79 Z" id="Path" fill="#A07838" sketch:type="MSShapeGroup"></path>
            <path d="M407.33,102.54 C411.18,103.97 416.9,105.51 423.39,105.51 C433.73,105.51 440.88,102.32 444.84,96.16 C447.26,92.53 448.36,87.91 448.36,81.31 L448.36,28.29 L444.07,28.29 L440.77,35.33 L440.55,35.33 C437.03,31.92 431.97,28.29 425.37,28.29 C414.7,28.29 404.91,38.3 404.91,55.02 C404.91,71.52 413.49,80.21 423.94,80.21 C430.65,80.21 436.15,76.25 439.67,71.96 L439.89,71.96 L439.89,82.41 C439.89,86.81 439.34,90 437.91,92.42 C435.05,97.26 429.33,99.35 421.85,99.35 C415.91,99.35 411.51,98.25 407.33,96.93 L407.33,102.54 Z" id="Path" fill="#A07838" sketch:type="MSShapeGroup"></path>
            <path d="M439.89,66.02 C436.37,70.2 431.75,73.72 426.03,73.72 C418.33,73.72 413.6,66.35 413.6,54.91 C413.6,42.7 418.99,34.89 427.13,34.89 C431.53,34.89 436.26,37.09 439.89,40.5 L439.89,66.02 Z" id="Path" fill="#FFFFFF" sketch:type="MSShapeGroup"></path>
            <path d="M462.99,79 L471.35,79 L471.35,42.04 C474.98,38.19 480.26,35 485.43,35 C488.95,35 492.14,36.32 494.01,39.62 C495.11,41.49 495.55,44.02 495.55,47.87 L495.55,79 L504.02,79 L504.02,46.66 C504.02,41.49 503.14,37.75 501.27,34.78 C498.85,30.82 494.45,28.29 488.62,28.29 C481.25,28.29 475.86,32.14 471.57,36.98 L471.35,36.98 L471.35,1.12 L462.99,1.12 L462.99,79 Z" id="Path" fill="#A07838" sketch:type="MSShapeGroup"></path>
            <path d="M528.33,80.21 C534.6,80.21 539.66,77.57 544.06,71.85 L544.28,71.85 C545.05,75.26 547.69,78.89 553.85,80.1 L556.38,72.62 C552.53,71.52 551.43,68.88 551.43,65.25 L551.43,43.03 C551.43,31.37 543.51,28.29 534.93,28.29 C529.43,28.29 522.61,30.05 517.66,33.02 L517.66,38.41 C522.17,36.32 527.67,34.67 533.06,34.67 C538.67,34.67 543.07,36.76 543.07,43.58 L543.07,49.74 C525.36,50.18 514.47,54.58 514.47,66.79 C514.47,76.25 521.18,80.21 528.33,80.21 L528.33,80.21 Z" id="Path" fill="#A07838" sketch:type="MSShapeGroup"></path>
            <path d="M523.16,65.91 C523.16,58.98 529.1,55.13 543.07,54.8 L543.07,66.79 C540.32,71.3 535.92,73.94 530.97,73.94 C525.91,73.94 523.16,70.75 523.16,65.91 Z" id="Path" fill="#FFFFFF" sketch:type="MSShapeGroup"></path>
            <path d="M10.67,79 L19.03,79 L19.03,35.99 L31.79,35.99 L31.79,29.72 L19.03,29.72 L19.03,19.6 L18.81,10.58 C21.34,8.71 24.75,7.39 29.15,7.39 C31.13,7.39 33.44,7.61 36.19,8.16 L36.19,0.79 C34.32,0.35 32.34,0.24 30.58,0.24 C19.25,0.24 10.67,7.5 10.67,21.8 L10.67,29.72 L0.66,29.72 L0.66,33.24 L10.67,35.99 L10.67,79 Z M60.61,80.21 C75.24,80.21 84.81,69.1 84.81,54.25 C84.81,39.4 75.79,28.29 60.83,28.29 C46.2,28.29 36.63,39.4 36.63,54.25 C36.63,69.1 45.76,80.21 60.61,80.21 L60.61,80.21 Z M60.72,74.71 C51.59,74.71 45.32,67.01 45.32,54.25 C45.32,41.49 51.37,33.79 60.72,33.79 C69.85,33.79 76.12,41.49 76.12,54.25 C76.12,67.01 70.07,74.71 60.72,74.71 L60.72,74.71 Z M96.8,79 L105.27,79 L105.27,42.15 C110.11,37.75 114.62,36.32 120.67,36.54 L120.67,27.96 C113.3,28.18 108.68,32.8 105.49,37.42 L105.27,37.42 L105.27,29.72 L96.8,29.72 L96.8,79 Z M165,76.91 L165,71.74 C163.02,72.62 157.41,74.16 151.91,74.16 C140.58,74.16 134.53,68.33 134.31,55.35 L166.21,55.35 C166.32,54.25 166.32,52.82 166.32,51.83 C166.32,41.05 160.82,28.29 146.96,28.29 C134.2,28.29 125.73,38.96 125.73,55.02 C125.73,72.4 136.4,80.21 149.82,80.21 C156.64,80.21 162.91,78.01 165,76.91 L165,76.91 Z M134.31,51.28 C134.42,39.29 139.7,33.9 146.41,33.9 C154.66,33.9 157.74,41.93 157.74,49.96 L134.31,51.28 Z M173.69,77.68 C175.67,78.78 180.73,80.21 187.33,80.21 C197.01,80.21 206.36,75.59 206.36,65.03 C206.36,47.54 182.05,52.49 182.05,41.27 C182.05,36.54 186.01,34.45 191.95,34.45 C195.91,34.45 200.64,35.33 203.94,36.32 L203.94,30.71 C201.63,29.72 196.46,28.29 190.63,28.29 C181.28,28.29 173.69,33.13 173.69,42.04 C173.69,58.98 197.89,53.7 197.89,65.91 C197.89,70.2 194.92,74.16 185.9,74.16 C181.61,74.16 176.99,73.39 173.69,72.18 L173.69,77.68 Z M243.98,77.68 L243.98,72.51 C242.11,72.95 239.14,73.5 236.28,73.5 C232.1,73.5 228.8,72.4 228.8,66.9 L228.8,35.99 L243.32,35.99 L243.32,29.72 L228.8,29.72 L228.8,15.97 L220.33,15.97 L220.33,29.72 L210.32,29.72 L210.32,33.24 L220.33,35.99 L220.33,67.78 C220.33,77.24 225.72,79.77 232.98,79.77 C236.94,79.77 241.78,78.78 243.98,77.68 L243.98,77.68 Z" id="forestSangha" fill="#808180" sketch:type="MSShapeGroup"></path>
        </g>
    </g>
</svg>