<?xml version="1.0" encoding="UTF-8" standalone="no"?>
<svg
   xmlns:dc="http://purl.org/dc/elements/1.1/"
   xmlns:cc="http://creativecommons.org/ns#"
   xmlns:rdf="http://www.w3.org/1999/02/22-rdf-syntax-ns#"
   xmlns:svg="http://www.w3.org/2000/svg"
   xmlns="http://www.w3.org/2000/svg"
   xmlns:sodipodi="http://sodipodi.sourceforge.net/DTD/sodipodi-0.dtd"
   xmlns:inkscape="http://www.inkscape.org/namespaces/inkscape"
   sodipodi:docname="abm-logo-topnav.svg"
   inkscape:version="1.0beta2 (2b71d25, 2019-12-03)"
   id="svg8"
   version="1.1"
   viewBox="0 0 19.981181 18.308079"
   height="69.195885"
   width="75.519424">
  <defs
     id="defs2" />
  <sodipodi:namedview
     inkscape:window-maximized="1"
     inkscape:window-y="37"
     inkscape:window-x="0"
     inkscape:window-height="1043"
     inkscape:window-width="1920"
     fit-margin-bottom="1"
     fit-margin-right="1"
     fit-margin-left="1"
     fit-margin-top="1"
     lock-margins="true"
     units="px"
     showgrid="false"
     inkscape:document-rotation="0"
     inkscape:current-layer="layer1"
     inkscape:document-units="mm"
     inkscape:cy="47.297179"
     inkscape:cx="-36.715387"
     inkscape:zoom="3.959798"
     inkscape:pageshadow="2"
     inkscape:pageopacity="0.0"
     borderopacity="1.0"
     bordercolor="#666666"
     pagecolor="#ffffff"
     id="base" />
  <metadata
     id="metadata5">
    <rdf:RDF>
      <cc:Work
         rdf:about="">
        <dc:format>image/svg+xml</dc:format>
        <dc:type
           rdf:resource="http://purl.org/dc/dcmitype/StillImage" />
        <dc:title></dc:title>
      </cc:Work>
    </rdf:RDF>
  </metadata>
  <g
     transform="translate(-104.52345,-129.83966)"
     id="layer1"
     inkscape:groupmode="layer"
     inkscape:label="Layer 1">
    <circle
       r="8.7569551"
       cy="138.9937"
       cx="113.67749"
       id="path112"
       style="fill:#ffffff;stroke:#000000;stroke-width:0.265;stroke-miterlimit:4;stroke-dasharray:none" />
    <path
       sodipodi:nodetypes="cccccccccccccccccccccccsccccccccccccccccccccc"
       inkscape:connector-curvature="0"
       id="path110"
       d="m 104.88164,142.11423 c 0.0304,-0.0492 0.21702,-0.11646 0.41468,-0.14944 0.81971,-0.13679 2.19122,-0.7391 3.13663,-1.37748 l 0.49123,-0.3317 -0.3219,-0.0532 c -0.17704,-0.0293 -0.50605,-0.0536 -0.73112,-0.0541 -0.26585,-5.9e-4 -0.39807,-0.0344 -0.37738,-0.0965 0.0215,-0.0643 0.32889,-0.0904 0.9421,-0.0799 l 0.91027,0.0156 0.44078,-0.36154 c 1.72583,-1.41558 2.87101,-2.68243 3.338,-3.69265 0.22838,-0.49404 0.29646,-0.76978 0.34469,-1.39601 0.0477,-0.6199 0.0882,-0.78575 0.19675,-0.80651 0.11627,-0.0223 0.14272,0.0999 0.17733,0.81842 0.0337,0.70107 0.0799,0.92204 0.27139,1.30058 0.55769,1.10226 1.78109,2.31714 3.36944,3.34598 l 0.81846,0.53014 1.38103,-0.12133 c 0.77954,-0.0685 1.41402,-0.0894 1.45678,-0.048 0.10037,0.0972 -0.11935,0.13736 -1.38808,0.25385 -0.58209,0.0534 -1.06935,0.10815 -1.08282,0.12156 -0.0616,0.0614 2.13931,1.07452 2.83728,1.3061 0.79486,0.26372 1.84251,0.54138 2.41537,0.64014 0.17463,0.0301 0.3175,0.0966 0.3175,0.14772 0,0.23558 -2.58135,-0.25723 -3.85233,-0.73547 -0.32597,-0.12265 -1.06826,-0.47243 -1.64954,-0.77728 l -1.05688,-0.55428 -1.22912,0.10091 c -0.67602,0.0555 -2.44544,0.12211 -3.93203,0.14802 l -2.70291,0.0471 -0.68376,0.44374 c -0.90211,0.58543 -1.42135,0.84074 -2.31469,1.13812 -0.77906,0.25934 -2.03737,0.43949 -1.93715,0.27733 z m 8.56341,-2.13499 c 1.5367,-0.0427 3.07218,-0.10422 3.41219,-0.13667 l 0.61818,-0.059 -0.49793,-0.31484 c -1.28754,-0.81409 -2.43847,-1.8028 -3.12477,-2.68435 l -0.21226,-0.27264 -0.35045,0.52664 c -0.41173,0.61874 -1.44876,1.6524 -2.33883,2.33124 -0.34717,0.26477 -0.69007,0.52782 -0.762,0.58455 -0.16092,0.12689 -0.35341,0.12541 3.25587,0.0251 z"
       style="fill:#000000;stroke-width:0.0846667" />
  </g>
</svg>
