<?xml version="1.0" encoding="UTF-8" standalone="no"?>
<svg
   xmlns:dc="http://purl.org/dc/elements/1.1/"
   xmlns:cc="http://creativecommons.org/ns#"
   xmlns:rdf="http://www.w3.org/1999/02/22-rdf-syntax-ns#"
   xmlns:svg="http://www.w3.org/2000/svg"
   xmlns="http://www.w3.org/2000/svg"
   xmlns:sodipodi="http://sodipodi.sourceforge.net/DTD/sodipodi-0.dtd"
   xmlns:inkscape="http://www.inkscape.org/namespaces/inkscape"
   width="256"
   height="256"
   viewBox="0 0 67.733332 67.733335"
   version="1.1"
   id="svg8"
   inkscape:version="1.0beta2 (2b71d25, 2019-12-03)"
   sodipodi:docname="topnav-logo.svg">
  <defs
     id="defs2" />
  <sodipodi:namedview
     id="base"
     pagecolor="#ffffff"
     bordercolor="#666666"
     borderopacity="1.0"
     inkscape:pageopacity="0.0"
     inkscape:pageshadow="2"
     inkscape:zoom="1.4"
     inkscape:cx="130.20031"
     inkscape:cy="99.724765"
     inkscape:document-units="mm"
     inkscape:current-layer="layer1"
     inkscape:document-rotation="0"
     showgrid="false"
     units="px"
     inkscape:snap-page="true"
     showguides="true"
     inkscape:guide-bbox="true"
     inkscape:snap-bbox="true"
     inkscape:snap-bbox-midpoints="true"
     inkscape:showpageshadow="false"
     inkscape:window-width="1920"
     inkscape:window-height="1043"
     inkscape:window-x="0"
     inkscape:window-y="37"
     inkscape:window-maximized="0">
    <sodipodi:guide
       position="33.866664,33.866669"
       orientation="1,0"
       id="guide458" />
    <sodipodi:guide
       position="33.866663,33.86667"
       orientation="0,-1"
       id="guide460" />
  </sodipodi:namedview>
  <metadata
     id="metadata5">
    <rdf:RDF>
      <cc:Work
         rdf:about="">
        <dc:format>image/svg+xml</dc:format>
        <dc:type
           rdf:resource="http://purl.org/dc/dcmitype/StillImage" />
        <dc:title />
      </cc:Work>
    </rdf:RDF>
  </metadata>
  <g
     inkscape:label="Layer 1"
     inkscape:groupmode="layer"
     id="layer1">
    <circle
       style="fill:#a07838;stroke-width:0.264583;fill-opacity:1"
       id="path462"
       cx="33.866665"
       cy="33.866665"
       r="33.866665" />
    <g
       transform="matrix(1.5800551,0,0,1.5800551,-19.644545,-19.644517)"
       style="font-style:normal;font-variant:normal;font-weight:normal;font-stretch:normal;font-size:35.2778px;line-height:1.25;font-family:'Alegreya Sans';-inkscape-font-specification:'Alegreya Sans Normal';font-variant-ligatures:normal;font-variant-caps:normal;font-variant-numeric:normal;font-variant-east-asian:normal;fill:#ffffff;fill-opacity:1;stroke:none;stroke-width:0.264583"
       id="text846"
       aria-label="fs">
      <path
         inkscape:connector-curvature="0"
         id="path848"
         style="font-style:normal;font-variant:normal;font-weight:normal;font-stretch:normal;font-size:35.2778px;font-family:'Alegreya Sans';-inkscape-font-specification:'Alegreya Sans Normal';font-variant-ligatures:normal;font-variant-caps:normal;font-variant-numeric:normal;font-variant-east-asian:normal;fill:#ffffff;fill-opacity:1;stroke-width:0.264583"
         d="m 31.701773,21.307757 c -3.704169,0 -5.820838,2.081391 -5.78556,5.891393 l 0.03528,2.822224 h -2.39889 l -0.176389,1.658057 0.141111,0.211667 h 2.434168 l 0.07056,7.37306 -0.211667,6.879172 h 2.786946 l -0.176389,-7.090838 0.07056,-7.161394 h 4.198058 l 0.176389,-1.658057 -0.105833,-0.211667 h -4.233336 l 0.03528,-3.245557 c 0.03528,-2.293058 1.058334,-3.421947 2.89278,-3.421947 0.846667,0 1.587501,0.141111 2.57528,0.635 l 0.211666,-0.176389 0.211667,-2.187223 C 33.465663,21.413591 32.54844,21.307757 31.701773,21.307757 Z" />
      <path
         inkscape:connector-curvature="0"
         id="path850"
         style="font-style:normal;font-variant:normal;font-weight:normal;font-stretch:normal;font-size:35.2778px;font-family:'Alegreya Sans';-inkscape-font-specification:'Alegreya Sans Normal';font-variant-ligatures:normal;font-variant-caps:normal;font-variant-numeric:normal;font-variant-east-asian:normal;fill:#ffffff;fill-opacity:1;stroke-width:0.264583"
         d="m 40.017963,29.739152 c -3.492502,0 -5.573893,1.975557 -5.573893,4.65667 0,5.009448 7.373061,4.339169 7.373061,7.584727 0,1.234723 -1.093612,2.434168 -2.928058,2.434168 -1.305278,0 -2.963335,-0.599722 -4.303892,-1.76389 l -0.3175,0.211667 -0.352778,2.398891 c 1.481668,0.776111 3.175002,1.164167 4.691948,1.164167 3.739447,0 5.750281,-2.363613 5.750281,-4.938892 0,-4.868337 -7.337782,-4.198059 -7.337782,-7.443616 0,-1.199446 1.023056,-2.293057 2.681113,-2.293057 1.093612,0 2.222501,0.388055 3.386669,1.164167 l 0.423333,-0.105833 0.388056,-2.293057 C 42.62852,29.986097 41.252686,29.739152 40.017963,29.739152 Z" />
    </g>
  </g>
</svg>
